<?xml version="1.0" encoding="utf-8"?>
<!-- Generator: Adobe Illustrator 26.4.1, SVG Export Plug-In . SVG Version: 6.00 Build 0)  -->
<svg version="1.1" id="Capa_1" xmlns="http://www.w3.org/2000/svg" xmlns:xlink="http://www.w3.org/1999/xlink" x="0px" y="0px"
	 viewBox="0 0 917.96 1080" style="enable-background:new 0 0 917.96 1080;" xml:space="preserve">
<style type="text/css">
	.st0{fill:#E0E0E0;}
</style>
<g>
	<path class="st0" d="M1.61,665.92c0.57-17.64,11.45-29.19,20.52-40.56c15.34-19.23,31.74-37.77,49.08-55.23
		c68.57-69,119.92-150.09,166.91-234.32c47.64-85.39,95.39-170.72,142.7-256.29c13.28-24.02,30.94-44.01,51.64-61.64
		c24.7-21.04,41.26-22.45,68.57-4.73c34.62,22.47,61.61,52.38,78.67,89.72c16.41,35.92,29.3,73.42,44.78,109.78
		c29.24,68.71,68.01,132.44,104.58,197.33c38.51,68.32,83.85,131.99,131.18,194.34c15.89,20.93,31.7,41.92,47.77,62.71
		c14.65,18.95,13.35,33.96-5.5,49.04c-7.23,5.79-15.12,11.11-23.45,15.13c-50.12,24.18-92.27,59.22-133.5,95.74
		c-73.83,65.41-147.08,131.36-215.36,202.71c-15.88,16.6-35.68,29.69-54.58,43.12c-15,10.66-30.75,8.67-46.72-0.47
		c-23.72-13.59-43.73-31.42-62.86-50.55c-57.96-57.93-114.69-117.17-174.51-173.12c-38.08-35.61-80.72-66.38-121.44-99.15
		c-21.57-17.36-43.64-34.3-58.25-58.37C7.2,683.45,4.95,674.36,1.61,665.92z M709.17,598.2c0.15-22.64-1.91-42.38-21.18-53.39
		c-25.66-14.66-52.46-18.79-79.49-2.27c-28.69,17.52-57.33,35.13-86.25,52.25c-15.16,8.97-30.57,17.64-46.42,25.29
		c-18.89,9.12-37.86,8.56-56.26-2.51c-39.07-23.5-78.66-46.18-117.28-70.39c-25.61-16.05-50.94-14.71-77.08-3.37
		c-14.53,6.3-22.76,17.84-25.71,33.31c-6.03,31.71,2.14,60.88,17.35,88.15c30.78,55.18,62.47,109.84,100.62,160.47
		c22.97,30.48,44.89,61.78,68.62,91.65c12.08,15.2,26.2,29.14,41.04,41.72c19.38,16.44,38.28,16.33,57.72,0.38
		c11.47-9.41,22.43-20.09,31.24-31.96c27.3-36.77,54.71-73.57,79.75-111.87c32.2-49.25,62.57-99.71,92.86-150.17
		C701.44,644.22,709.44,620.89,709.17,598.2z"/>
</g>
</svg>
